<svg id="appfoundry-exp" xmlns="http://www.w3.org/2000/svg" viewBox="0 0 48 48" style="fill: rgb(255, 79, 31);"><title>appfoundry-icononly</title><path d="M30.11,48H15.77a2.82,2.82,0,0,1,0-5.64H30.11a2.82,2.82,0,0,1,0,5.64ZM15.77,43.37a1.82,1.82,0,0,0,0,3.63H30.11a1.82,1.82,0,0,0,0-3.63Z"/><path d="M40.72,38.66H25.41a2.82,2.82,0,0,1,0-5.64H40.72a2.82,2.82,0,0,1,0,5.64ZM25.41,34a1.82,1.82,0,0,0,0,3.63H40.72a1.82,1.82,0,0,0,0-3.63Z"/><path d="M33.26,29.32H15.89a2.82,2.82,0,0,1,0-5.64H33.26a2.82,2.82,0,0,1,0,5.64ZM15.89,24.69a1.82,1.82,0,0,0,0,3.63H33.26a1.82,1.82,0,0,0,0-3.63Z"/><path d="M21.77,20H7.28a2.82,2.82,0,0,1,0-5.64H21.77a2.82,2.82,0,0,1,0,5.64ZM7.28,15.35a1.82,1.82,0,0,0,0,3.63H21.77a1.82,1.82,0,0,0,0-3.63Z"/><path d="M27.7,10.64h-10A2.82,2.82,0,0,1,17.7,5h10a2.82,2.82,0,0,1,0,5.64ZM17.7,6a1.82,1.82,0,0,0,0,3.63h10A1.82,1.82,0,0,0,27.7,6Z"/><path d="M35.08,6a3,3,0,1,1,3-3A3,3,0,0,1,35.08,6Zm0-5a2,2,0,1,0,2,2A2,2,0,0,0,35.08,1Z"/></svg>