<svg xmlns="http://www.w3.org/2000/svg" viewBox="0 0 48 48" style="fill: rgb(255, 79, 31);"><title>energy_blog</title><g id="energy_blog-exp_copy" data-name="energy / blog-exp copy"><path d="M17.78,39.09h-2V33.35a3.51,3.51,0,0,0-1.46-2.87A16.77,16.77,0,0,1,22.09.11,16.77,16.77,0,0,1,33.62,30.51a3.43,3.43,0,0,0-1.4,2.84V39H22.12V37h8.1V33.35a5.44,5.44,0,0,1,2.25-4.48,14.78,14.78,0,1,0-17,0,5.52,5.52,0,0,1,2.3,4.51Z"/><rect x="15.59" y="41.65" width="16.82" height="2"/><rect x="19.55" y="46" width="8.9" height="2"/></g></svg>