<svg xmlns="http://www.w3.org/2000/svg" viewBox="0 0 48 48" style="fill: rgb(255, 79, 31);"><title>gated</title><g id="gated-exp"><path d="M38.86,19.9l0,2a1.33,1.33,0,0,1,1.29,1.32V44.68A1.32,1.32,0,0,1,38.79,46H9.21a1.32,1.32,0,0,1-1.32-1.32V23.22A1.32,1.32,0,0,1,9.21,21.9h5.86v-11a8.93,8.93,0,0,1,17.87,0v9H20.13v2h14.8v-11a10.93,10.93,0,0,0-21.87,0v9H9.21a3.32,3.32,0,0,0-3.32,3.32V44.68A3.33,3.33,0,0,0,9.21,48H38.79a3.32,3.32,0,0,0,3.32-3.32V23.22A3.34,3.34,0,0,0,38.86,19.9Z"/><rect x="23" y="30.25" width="2" height="8.85"/></g></svg>