<?xml version="1.0" encoding="UTF-8" standalone="no"?>
<svg
   xmlns:dc="http://purl.org/dc/elements/1.1/"
   xmlns:cc="http://creativecommons.org/ns#"
   xmlns:rdf="http://www.w3.org/1999/02/22-rdf-syntax-ns#"
   xmlns:svg="http://www.w3.org/2000/svg"
   xmlns="http://www.w3.org/2000/svg"
   viewBox="0 0 249 403.14667"
   height="403.14667"
   width="249"
   xml:space="preserve"
   id="svg2"
   version="1.1"><metadata
     id="metadata8"><rdf:RDF><cc:Work
         rdf:about=""><dc:format>image/svg+xml</dc:format><dc:type
           rdf:resource="http://purl.org/dc/dcmitype/StillImage" /></cc:Work></rdf:RDF></metadata><defs
     id="defs6" /><g
     transform="matrix(1.3333333,0,0,-1.3333333,0,403.14667)"
     id="g10"><g
       transform="scale(0.1)"
       id="g12"><path
         id="path14"
         style="fill:#f03e25;fill-opacity:1;fill-rule:nonzero;stroke:none"
         d="M 1345.04,1044.94 H 989.328 C 700.793,1044.94 466.887,811.031 466.887,522.469 466.887,233.941 700.793,0 989.328,0 h 355.712 c 288.58,0 522.5,233.941 522.5,522.469 0,288.562 -233.92,522.471 -522.5,522.471 z m 0,-195.639 c 180.22,0 326.83,-146.61 326.83,-326.832 0,-180.207 -146.61,-326.828 -326.83,-326.828 H 989.328 c -180.215,0 -326.773,146.621 -326.773,326.828 0,180.222 146.558,326.832 326.773,326.832 h 355.712 m 0,1418.459 H 522.449 C 233.906,2267.76 0,2033.83 0,1745.29 0,1456.73 233.906,1222.82 522.449,1222.82 h 822.591 c 288.58,0 522.5,233.91 522.5,522.47 0,288.54 -233.92,522.47 -522.5,522.47 z m 0,-195.65 c 180.22,0 326.83,-146.6 326.83,-326.82 0,-180.22 -146.61,-326.82 -326.83,-326.82 H 522.449 c -180.222,0 -326.777,146.6 -326.777,326.82 0,180.22 146.555,326.82 326.777,326.82 h 822.591 m 211.22,951.54 c -171.89,0 -311.27,-139.35 -311.27,-311.25 0,-171.9 139.38,-311.27 311.27,-311.27 171.91,0 311.28,139.37 311.28,311.27 0,171.9 -139.37,311.25 -311.28,311.25 z m 0,-168.97 c 78.45,0 142.33,-63.83 142.33,-142.28 0,-78.47 -63.88,-142.3 -142.33,-142.3 -78.45,0 -142.32,63.83 -142.32,142.3 0,78.45 63.87,142.28 142.32,142.28" /></g></g></svg>