<svg xmlns="http://www.w3.org/2000/svg" viewBox="0 0 48 48" style="fill: rgb(255, 79, 31);"><title>group</title><g id="group-exp"><path d="M38.1,36.08l-7.3-2.31-.61,1.91L37.49,38a.54.54,0,0,1,.38.52v5.17h2V38.51A2.54,2.54,0,0,0,38.1,36.08Z"/><path d="M30.86,22.05a6.8,6.8,0,0,0-13.61,0v4a6.81,6.81,0,0,0,6.8,6.8v-2a4.8,4.8,0,0,1-4.8-4.8v-4a4.8,4.8,0,0,1,9.6,0v4a4.81,4.81,0,0,1-2,3.92l-.53.36V34a2.22,2.22,0,0,1-4.45,0v-.72l-1.32-.44L9.91,35.91a2.56,2.56,0,0,0-1.69,2.4v5.37h2V38.31a.54.54,0,0,1,.3-.49L20,35A4.23,4.23,0,0,0,28.28,34v-2.6A6.82,6.82,0,0,0,30.86,26Z"/><path d="M13.46,23v-2.6A6.82,6.82,0,0,0,16,15.11v-4a6.83,6.83,0,0,0-.05-.85h0a6.8,6.8,0,0,0-13.56.85v4a6.81,6.81,0,0,0,6.8,6.8v-2a4.8,4.8,0,0,1-4.8-4.8v-4a4.8,4.8,0,0,1,9.56-.6l1-.12-1,.13a4.71,4.71,0,0,1,0,.6v4A4.81,4.81,0,0,1,12,19l-.52.36V23A2.22,2.22,0,1,1,7,23V22.3l-1.32-.43L0,23.54l.56,1.92,4.58-1.34A4.23,4.23,0,0,0,13.46,23Z"/><path d="M48,23.62l-4.89-1.35V20.43a6.81,6.81,0,0,0,2.57-5.32v-4a6.8,6.8,0,1,0-13.61,0v4a6.81,6.81,0,0,0,6.8,6.8v-2a4.8,4.8,0,0,1-4.8-4.8v-4a4.8,4.8,0,1,1,9.6,0v4a4.81,4.81,0,0,1-2,3.93l-.52.36V23a2.22,2.22,0,0,1-4,1.38l-1.57,1.24a4.21,4.21,0,0,0,7.33-1.36l4.57,1.26Z"/></g></svg>